<?xml version="1.0" encoding="UTF-8" standalone="no"?>
<svg
   xmlns:dc="http://purl.org/dc/elements/1.1/"
   xmlns:cc="http://creativecommons.org/ns#"
   xmlns:rdf="http://www.w3.org/1999/02/22-rdf-syntax-ns#"
   xmlns:svg="http://www.w3.org/2000/svg"
   xmlns="http://www.w3.org/2000/svg"
   xmlns:sodipodi="http://sodipodi.sourceforge.net/DTD/sodipodi-0.dtd"
   xmlns:inkscape="http://www.inkscape.org/namespaces/inkscape"
   inkscape:export-ydpi="62.060001"
   inkscape:export-xdpi="62.060001"
   inkscape:export-filename="C:\Users\jio\Desktop\pocam.png"
   inkscape:output_extension="org.inkscape.output.svg.inkscape"
   sodipodi:docname="pocam.svg"
   version="1.0"
   height="1080"
   width="1980"
   inkscape:version="1.0 (4035a4fb49, 2020-05-01)"
   sodipodi:version="0.32"
   id="svg2457">
  <metadata
     id="metadata2462">
    <rdf:RDF>
      <cc:Work
         rdf:about="">
        <dc:format>image/svg+xml</dc:format>
        <dc:type
           rdf:resource="http://purl.org/dc/dcmitype/StillImage" />
        <dc:title></dc:title>
      </cc:Work>
    </rdf:RDF>
  </metadata>
  <defs
     id="defs2460">
    <rect
       id="rect842"
       height="160"
       width="580"
       y="220"
       x="420" />
    <rect
       id="rect834"
       height="490"
       width="1925"
       y="90"
       x="175" />
    <inkscape:perspective
       id="perspective2464"
       inkscape:persp3d-origin="372.04724 : 1262.7874 : 1"
       inkscape:vp_z="744.09448 : 1438.1811 : 1"
       inkscape:vp_y="0 : 1000 : 0"
       inkscape:vp_x="0 : 1438.1811 : 1"
       sodipodi:type="inkscape:persp3d" />
  </defs>
  <sodipodi:namedview
     inkscape:window-maximized="0"
     inkscape:document-rotation="0"
     inkscape:current-layer="svg2457"
     inkscape:window-y="1410"
     inkscape:window-x="0"
     inkscape:cy="358.74074"
     inkscape:cx="342.16494"
     inkscape:zoom="1"
     showgrid="true"
     id="base"
     pagecolor="#ffffff"
     bordercolor="#666666"
     borderopacity="1.0"
     objecttolerance="10.0"
     gridtolerance="10.0"
     guidetolerance="10.0"
     inkscape:pageopacity="0.0"
     inkscape:pageshadow="2"
     inkscape:window-width="1598"
     inkscape:window-height="1365">
    <inkscape:grid
       id="grid2470"
       type="xygrid" />
  </sodipodi:namedview>
  <rect
     y="0"
     x="0"
     height="1080"
     width="1980"
     id="rect838"
     style="fill:#6666cc;fill-opacity:1;stroke:none;stroke-width:52;stroke-linecap:square;stroke-linejoin:round;paint-order:markers stroke fill" />
  <path
     sodipodi:nodetypes="csscsssscsscsssccccscccssssccsssssscccssscsssscscc"
     id="path2468"
     d="m 245.26184,640.24725 c 0.20792,-0.70262 7.42073,-27.55605 16.02845,-59.67429 8.60772,-32.11824 15.82247,-58.96807 16.03276,-59.66631 0.36112,-1.19894 4.76027,-1.26919 79.16794,-1.264 51.61363,0.003 80.41065,0.26863 83.49751,0.76846 10.71252,1.73466 19.05458,8.1443 21.48406,16.50728 1.62497,5.59366 1.4741,14.304 -0.38299,22.11038 -4.85823,20.42196 -18.47183,35.39819 -38.13655,41.95377 -5.04498,1.68181 -5.31715,1.69295 -46.9382,1.91807 -23.02509,0.12461 -41.84914,0.12994 -41.83122,0.0133 0.0181,-0.11776 1.57234,-5.92703 3.45428,-12.90925 l 3.42173,-12.69496 22.46138,-0.36271 c 21.23509,-0.34293 22.6197,-0.44796 25.36106,-1.92385 9.63009,-5.18469 14.87882,-17.57998 10.49268,-24.77922 -2.72765,-4.47702 -3.15511,-4.52626 -37.47344,-4.3167 l -30.97708,0.18907 -12.77638,47.51542 -12.7764,47.51539 -30.24381,0.18933 c -28.58553,0.17898 -30.2231,0.11931 -29.86578,-1.08814 z m 230.50333,-0.23348 c -6.02263,-1.9104 -10.96393,-6.39121 -13.64783,-12.37596 -3.67876,-8.20317 -3.35209,-10.54347 6.77197,-48.51571 6.23268,-23.37687 9.54455,-34.52783 11.35142,-38.21996 3.43793,-7.02497 9.43145,-13.05173 16.38716,-16.47806 10.08886,-4.96969 7.61995,-4.84239 89.64525,-4.62216 L 660,520 l 4.25147,1.71546 c 5.47451,2.20901 9.34902,6.09052 10.97776,10.99765 2.44104,7.35445 1.46019,13.32361 -7.86424,47.85996 -9.32657,34.54435 -10.2574,37.36731 -14.33768,43.48189 -5.55034,8.31756 -12.90783,13.48436 -22.81073,16.0189 -5.40754,1.38397 -8.1731,1.43353 -77.80109,1.39424 -69.48866,-0.0393 -72.36125,-0.0936 -76.65032,-1.45422 z m 117.51254,-26.27065 c 5.34927,-3.03195 6.26192,-5.24601 13.76552,-33.39433 6.6832,-25.07083 7.44695,-28.76311 6.47441,-31.29935 -1.20582,-3.14456 -2.88544,-3.29693 -36.34242,-3.29693 h -31.7903 l -3.29056,2.0883 c -1.80981,1.14854 -3.96467,3.18881 -4.78857,4.5339 -2.26757,3.70209 -15.6319,54.51619 -15.04334,57.19791 0.26012,1.18496 1.45255,2.97937 2.64993,3.98764 l 2.17708,1.83315 31.65939,-0.0103 c 31.4514,-0.0103 31.67823,-0.0239 34.52886,-1.63839 z"
     style="fill:#ffffff;fill-opacity:1;stroke-width:0.725523" />
  <text
     transform="translate(551.14278,394.60268)"
     style="font-style:normal;font-weight:normal;font-size:40px;line-height:1.25;font-family:sans-serif;letter-spacing:0px;word-spacing:0px;white-space:pre;shape-inside:url(#rect834);fill:#ffffff;fill-opacity:0.8582474;stroke:none;"
     id="text832"
     xml:space="preserve"><tspan
       x="175"
       y="238.74"><tspan
         style="font-style:normal;font-variant:normal;font-weight:900;font-stretch:normal;font-size:148px;font-family:'Noto Sans CJK KR';-inkscape-font-specification:'Noto Sans CJK KR, Heavy';font-variant-ligatures:normal;font-variant-caps:normal;font-variant-numeric:normal;font-variant-east-asian:normal;fill:#ffffff;fill-opacity:0.858247">Campus Menu</tspan></tspan></text>
  <text
     transform="matrix(1,0,-0.07962362,1,-127.98884,158.49772)"
     style="font-style:normal;font-weight:normal;font-size:40px;line-height:1.25;font-family:sans-serif;letter-spacing:0px;word-spacing:0px;white-space:pre;shape-inside:url(#rect842);fill:#000000;fill-opacity:1;stroke:none;"
     id="text840"
     xml:space="preserve"><tspan
       x="420"
       y="316.48"><tspan
         style="font-style:italic;font-variant:normal;font-weight:900;font-stretch:normal;font-size:96px;font-family:'Noto Sans CJK KR';-inkscape-font-specification:'Noto Sans CJK KR, Heavy';font-variant-ligatures:normal;font-variant-caps:normal;font-variant-numeric:normal;font-variant-east-asian:normal;fill:#ffffff;fill-opacity:1">Today's</tspan></tspan></text>
</svg>
