<?xml version="1.0" encoding="UTF-8" standalone="no"?>
<svg
   xmlns:dc="http://purl.org/dc/elements/1.1/"
   xmlns:cc="http://creativecommons.org/ns#"
   xmlns:rdf="http://www.w3.org/1999/02/22-rdf-syntax-ns#"
   xmlns:svg="http://www.w3.org/2000/svg"
   xmlns="http://www.w3.org/2000/svg"
   xmlns:sodipodi="http://sodipodi.sourceforge.net/DTD/sodipodi-0.dtd"
   xmlns:inkscape="http://www.inkscape.org/namespaces/inkscape"
   id="svg2457"
   sodipodi:version="0.32"
   inkscape:version="1.0 (4035a4fb49, 2020-05-01)"
   width="255"
   height="57"
   version="1.0"
   sodipodi:docname="header.svg"
   inkscape:output_extension="org.inkscape.output.svg.inkscape"
   inkscape:export-filename="C:\Users\jio\Desktop\pocam.png"
   inkscape:export-xdpi="62.060001"
   inkscape:export-ydpi="62.060001">
  <g
     style="font-style:normal;font-weight:normal;font-size:40px;line-height:1.25;font-family:sans-serif;letter-spacing:0px;word-spacing:0px;white-space:pre;shape-inside:url(#rect842);fill:#6666cc;fill-opacity:1;stroke:none"
     id="text840"
     transform="matrix(0.16378032,0,-0.01304078,0.16378032,-60.500176,-30.443267)"
     aria-label="Today's">
    <path
       id="path845"
       style="font-style:italic;font-variant:normal;font-weight:900;font-stretch:normal;font-size:96px;font-family:'Noto Sans CJK KR';-inkscape-font-specification:'Noto Sans CJK KR, Heavy';font-variant-ligatures:normal;font-variant-caps:normal;font-variant-numeric:normal;font-variant-east-asian:normal;fill:#6666cc;fill-opacity:1"
       d="m 442.08,316.48 h 17.184 l 11.424,-57.216 h 19.392 l 2.88,-14.208 h -55.872 l -2.88,14.208 h 19.296 z" />
    <path
       id="path847"
       style="font-style:italic;font-variant:normal;font-weight:900;font-stretch:normal;font-size:96px;font-family:'Noto Sans CJK KR';-inkscape-font-specification:'Noto Sans CJK KR, Heavy';font-variant-ligatures:normal;font-variant-caps:normal;font-variant-numeric:normal;font-variant-east-asian:normal;fill:#6666cc;fill-opacity:1"
       d="m 503.211,317.824 c 13.824,0 28.8,-10.56 32.448,-28.608 3.648,-18.144 -7.104,-28.704 -20.928,-28.704 -13.92,0 -28.896,10.56 -32.544,28.704 -3.648,18.048 7.104,28.608 21.024,28.608 z M 505.995,304 c -6.432,0 -8.16,-5.76 -6.336,-14.784 1.824,-9.12 5.856,-14.88 12.288,-14.88 6.336,0 8.064,5.76 6.24,14.88 C 516.363,298.24 512.331,304 505.995,304 Z" />
    <path
       id="path849"
       style="font-style:italic;font-variant:normal;font-weight:900;font-stretch:normal;font-size:96px;font-family:'Noto Sans CJK KR';-inkscape-font-specification:'Noto Sans CJK KR, Heavy';font-variant-ligatures:normal;font-variant-caps:normal;font-variant-numeric:normal;font-variant-east-asian:normal;fill:#6666cc;fill-opacity:1"
       d="m 560.208,317.824 c 5.184,0 11.04,-2.784 15.648,-6.624 h 0.384 l 0.192,5.28 h 13.92 l 15.36,-76.704 h -17.184 l -3.648,18.24 -0.96,8.16 c -2.88,-3.456 -5.952,-5.664 -12,-5.664 -11.328,0 -24.768,10.752 -28.32,28.704 -3.552,17.76 2.976,28.608 16.608,28.608 z m 7.296,-14.016 c -5.856,0 -8.352,-4.416 -6.336,-14.88 2.016,-10.08 7.296,-14.496 12,-14.496 2.88,0 5.664,0.864 7.776,3.264 l -4.32,21.504 c -2.976,3.552 -5.856,4.608 -9.12,4.608 z" />
    <path
       id="path851"
       style="font-style:italic;font-variant:normal;font-weight:900;font-stretch:normal;font-size:96px;font-family:'Noto Sans CJK KR';-inkscape-font-specification:'Noto Sans CJK KR, Heavy';font-variant-ligatures:normal;font-variant-caps:normal;font-variant-numeric:normal;font-variant-east-asian:normal;fill:#6666cc;fill-opacity:1"
       d="m 617.6355,317.824 c 6.048,0 11.712,-2.784 16.992,-6.816 h 0.384 l 0.192,5.472 h 13.92 l 6.24,-31.008 c 3.36,-17.088 -2.976,-24.96 -17.088,-24.96 -8.544,0 -16.896,2.88 -24.96,7.2 l 3.648,11.232 c 6.144,-3.072 10.944,-4.8 15.264,-4.8 5.568,0 7.392,2.592 6.912,7.008 -21.792,2.304 -32.064,8.544 -34.368,20.064 -1.824,9.12 2.784,16.608 12.864,16.608 z m 8.544,-13.248 c -3.552,0 -5.568,-1.536 -4.896,-4.704 0.768,-3.84 4.8,-6.912 15.744,-8.352 l -1.728,8.736 c -3.072,2.688 -5.664,4.32 -9.12,4.32 z" />
    <path
       id="path853"
       style="font-style:italic;font-variant:normal;font-weight:900;font-stretch:normal;font-size:96px;font-family:'Noto Sans CJK KR';-inkscape-font-specification:'Noto Sans CJK KR, Heavy';font-variant-ligatures:normal;font-variant-caps:normal;font-variant-numeric:normal;font-variant-east-asian:normal;fill:#6666cc;fill-opacity:1"
       d="m 664.8165,337.504 c 12.96,0 20.256,-6.912 28.416,-20.928 l 29.664,-54.72 h -16.224 l -10.848,22.656 c -2.304,5.184 -4.608,10.272 -6.72,15.456 h -0.48 c -0.288,-5.376 -0.48,-10.464 -1.056,-15.456 l -2.784,-22.656 h -17.184 l 10.272,52.992 -1.248,2.784 c -2.016,3.84 -5.28,6.528 -10.464,6.528 -1.248,0 -2.592,-0.48 -3.552,-0.672 l -5.664,12.96 c 2.208,0.672 4.32,1.056 7.872,1.056 z" />
    <path
       id="path855"
       style="font-style:italic;font-variant:normal;font-weight:900;font-stretch:normal;font-size:96px;font-family:'Noto Sans CJK KR';-inkscape-font-specification:'Noto Sans CJK KR, Heavy';font-variant-ligatures:normal;font-variant-caps:normal;font-variant-numeric:normal;font-variant-east-asian:normal;fill:#6666cc;fill-opacity:1"
       d="m 733.026,278.752 h 9.312 l 7.776,-22.368 3.648,-15.168 h -17.184 l -2.496,15.168 z" />
    <path
       id="path857"
       style="font-style:italic;font-variant:normal;font-weight:900;font-stretch:normal;font-size:96px;font-family:'Noto Sans CJK KR';-inkscape-font-specification:'Noto Sans CJK KR, Heavy';font-variant-ligatures:normal;font-variant-caps:normal;font-variant-numeric:normal;font-variant-east-asian:normal;fill:#6666cc;fill-opacity:1"
       d="m 767.694,317.824 c 14.88,0 24.288,-7.776 26.304,-17.856 2.016,-9.888 -4.8,-13.824 -11.04,-16.416 -5.28,-2.016 -10.08,-3.264 -9.408,-6.528 0.576,-2.592 2.688,-3.936 6.528,-3.936 3.648,0 7.104,1.92 10.464,4.608 l 9.696,-10.176 c -4.128,-3.552 -9.504,-7.008 -18.144,-7.008 -12.672,0 -22.56,7.008 -24.672,17.376 -1.728,9.024 4.992,13.44 11.04,16.032 5.088,2.208 10.08,3.744 9.408,7.008 -0.48,2.688 -2.784,4.32 -7.296,4.32 -4.32,0 -8.448,-1.92 -12.672,-5.76 l -9.696,10.656 c 4.608,4.608 12.384,7.68 19.488,7.68 z" />
  </g>
  <metadata
     id="metadata2462">
    <rdf:RDF>
      <cc:Work
         rdf:about="">
        <dc:format>image/svg+xml</dc:format>
        <dc:type
           rdf:resource="http://purl.org/dc/dcmitype/StillImage" />
        <dc:title></dc:title>
      </cc:Work>
    </rdf:RDF>
  </metadata>
  <defs
     id="defs2460">
    <rect
       x="420"
       y="220"
       width="580"
       height="160"
       id="rect842" />
    <rect
       x="175"
       y="90"
       width="1925"
       height="490"
       id="rect834" />
    <inkscape:perspective
       sodipodi:type="inkscape:persp3d"
       inkscape:vp_x="0 : 415.1811 : 1"
       inkscape:vp_y="0 : 1000 : 0"
       inkscape:vp_z="744.09448 : 415.1811 : 1"
       inkscape:persp3d-origin="372.04724 : 239.7874 : 1"
       id="perspective2464" />
  </defs>
  <sodipodi:namedview
     inkscape:window-height="2066"
     inkscape:window-width="3840"
     inkscape:pageshadow="2"
     inkscape:pageopacity="0.0"
     guidetolerance="10.0"
     gridtolerance="10.0"
     objecttolerance="10.0"
     borderopacity="1.0"
     bordercolor="#666666"
     pagecolor="#ffffff"
     id="base"
     showgrid="true"
     inkscape:zoom="8"
     inkscape:cx="146.18423"
     inkscape:cy="83.16375"
     inkscape:window-x="1609"
     inkscape:window-y="-11"
     inkscape:current-layer="svg2457"
     inkscape:document-rotation="0"
     inkscape:window-maximized="1">
    <inkscape:grid
       type="xygrid"
       id="grid2470" />
  </sodipodi:namedview>
  <path
     style="fill:#6666cc;fill-opacity:1;stroke-width:0.118826"
     d="m 0.63093724,48.457822 c 0.034054,-0.115078 1.21536936,-4.513138 2.62514406,-9.773473 1.4097761,-5.260337 2.5914092,-9.657809 2.6258505,-9.772168 0.059136,-0.196363 0.7796384,-0.207868 12.9661502,-0.207018 8.453297,4.92e-4 13.169681,0.044 13.675248,0.125857 1.7545,0.284103 3.120765,1.333876 3.518667,2.703567 0.266138,0.916132 0.241428,2.342714 -0.06274,3.621246 -0.795682,3.344715 -3.025321,5.797527 -6.246015,6.871202 -0.826269,0.275446 -0.870845,0.277271 -7.687554,0.314141 -3.771057,0.02041 -6.854065,0.02128 -6.851131,0.0022 0.0029,-0.01929 0.257519,-0.970732 0.565744,-2.114282 l 0.560411,-2.079185 3.678733,-0.0594 c 3.477889,-0.05616 3.704661,-0.07336 4.153642,-0.315089 1.57722,-0.849149 2.436858,-2.879254 1.718494,-4.058348 -0.446735,-0.733247 -0.516744,-0.741312 -6.137411,-0.70699 l -5.073435,0.03097 -2.09252,7.782091 -2.092524,7.782084 -4.9533398,0.031 c -4.68174686,0.02931 -4.94994875,0.01954 -4.89142676,-0.178216 z M 38.382845,48.419572 c -0.986388,-0.312885 -1.795676,-1.046755 -2.235246,-2.026939 -0.602508,-1.343518 -0.549006,-1.726813 1.109115,-7.945918 1.020791,-3.828672 1.56321,-5.654979 1.859139,-6.259678 0.563066,-1.150551 1.544686,-2.137615 2.683894,-2.69878 1.652357,-0.813939 1.247998,-0.79309 14.682127,-0.75702 l 12.075009,0.03244 0.696307,0.280958 c 0.896617,0.361793 1.531185,0.997508 1.797942,1.8012 0.399794,1.204514 0.23915,2.182144 -1.288008,7.838518 -1.527509,5.657684 -1.679961,6.12003 -2.34823,7.121478 -0.909036,1.362252 -2.114049,2.208473 -3.735949,2.623581 -0.885648,0.226667 -1.338592,0.234784 -12.742286,0.228348 C 39.555783,48.65126 39.08531,48.64241 38.382845,48.419589 Z m 19.246241,-4.302616 c 0.876104,-0.496574 1.025578,-0.859192 2.254521,-5.469333 1.094577,-4.106108 1.219663,-4.710831 1.060381,-5.126218 -0.19749,-0.515016 -0.472579,-0.539972 -5.952173,-0.539972 H 49.78519 l -0.53893,0.342022 c -0.296412,0.188109 -0.649335,0.522265 -0.784273,0.742564 -0.371384,0.606329 -2.560197,8.928679 -2.463803,9.367892 0.0426,0.194072 0.237899,0.487962 0.434006,0.653097 l 0.356564,0.300233 5.185183,-0.0017 c 5.151121,-0.0017 5.188272,-0.0039 5.655149,-0.268337 z"
     id="path2468"
     sodipodi:nodetypes="csscsssscsscsssccccscccssssccsssssscccssscsssscscc" />
  <g
     style="font-style:normal;font-weight:normal;font-size:40px;line-height:1.25;font-family:sans-serif;letter-spacing:0px;word-spacing:0px;white-space:pre;shape-inside:url(#rect834);fill:#6666cc;fill-opacity:0.858824;stroke:none"
     id="text832"
     transform="matrix(0.16378032,0,0,0.16378032,50.728214,8.2260772)"
     aria-label="Campus Menu">
    <path
       id="path860"
       style="font-style:normal;font-variant:normal;font-weight:900;font-stretch:normal;font-size:148px;font-family:'Noto Sans CJK KR';-inkscape-font-specification:'Noto Sans CJK KR, Heavy';font-variant-ligatures:normal;font-variant-caps:normal;font-variant-numeric:normal;font-variant-east-asian:normal;fill:#6666cc;fill-opacity:0.858824"
       d="m 234.348,240.812 c 14.356,0 26.64,-5.476 35.964,-16.28 L 256.4,207.956 c -5.18,5.624 -12.284,10.064 -21.016,10.064 -15.54,0 -25.604,-12.728 -25.604,-34.632 0,-21.46 11.692,-34.188 25.9,-34.188 7.844,0 13.616,3.552 19.092,8.584 l 13.912,-16.872 c -7.548,-7.696 -19.092,-14.356 -33.448,-14.356 -27.972,0 -52.54,21.016 -52.54,57.72 0,37.296 23.68,56.536 51.652,56.536 z" />
    <path
       id="path862"
       style="font-style:normal;font-variant:normal;font-weight:900;font-stretch:normal;font-size:148px;font-family:'Noto Sans CJK KR';-inkscape-font-specification:'Noto Sans CJK KR, Heavy';font-variant-ligatures:normal;font-variant-caps:normal;font-variant-numeric:normal;font-variant-east-asian:normal;fill:#6666cc;fill-opacity:0.858824"
       d="m 305.82738,240.812 c 9.324,0 17.168,-4.292 24.12399,-10.508 h 0.592 l 1.924,8.436 h 21.46 v -47.804 c 0,-26.344 -12.284,-38.48 -34.03999,-38.48 -13.17201,0 -25.16001,4.44 -36.26,11.1 l 9.176,17.316 c 8.43599,-4.736 15.392,-7.4 22.05199,-7.4 8.584,0 12.136,3.996 12.728,10.804 -32.856,3.552 -46.76799,13.172 -46.76799,30.932 0,14.06 9.47199,25.604 25.012,25.604 z m 9.02799,-20.424 c -5.476,0 -9.02799,-2.368 -9.02799,-7.252 0,-5.92 5.32799,-10.656 21.75599,-12.876 v 13.468 c -3.848,4.144 -7.4,6.66 -12.728,6.66 z" />
    <path
       id="path864"
       style="font-style:normal;font-variant:normal;font-weight:900;font-stretch:normal;font-size:148px;font-family:'Noto Sans CJK KR';-inkscape-font-specification:'Noto Sans CJK KR, Heavy';font-variant-ligatures:normal;font-variant-caps:normal;font-variant-numeric:normal;font-variant-east-asian:normal;fill:#6666cc;fill-opacity:0.858824"
       d="m 374.12475,238.74 h 26.196 V 182.5 c 5.032,-5.18 9.62,-7.548 13.468,-7.548 6.66,0 9.62,3.404 9.62,14.948 v 48.84 h 26.492 V 182.5 c 5.032,-5.18 9.62,-7.548 13.468,-7.548 6.66,0 9.62,3.404 9.62,14.948 v 48.84 h 26.344 v -52.096 c 0,-21.016 -7.992,-34.188 -26.344,-34.188 -11.248,0 -19.092,6.512 -26.344,13.912 -4.292,-9.028 -11.396,-13.912 -23.088,-13.912 -11.396,0 -18.648,5.772 -25.604,12.728 h -0.592 l -1.776,-10.656 h -21.46 z" />
    <path
       id="path866"
       style="font-style:normal;font-variant:normal;font-weight:900;font-stretch:normal;font-size:148px;font-family:'Noto Sans CJK KR';-inkscape-font-specification:'Noto Sans CJK KR, Heavy';font-variant-ligatures:normal;font-variant-caps:normal;font-variant-numeric:normal;font-variant-east-asian:normal;fill:#6666cc;fill-opacity:0.858824"
       d="m 519.81225,269.376 h 26.196 v -24.124 l -0.74,-13.172 c 5.624,5.624 12.432,8.732 19.536,8.732 18.056,0 35.372,-16.576 35.372,-45.584 0,-25.9 -12.728,-42.772 -32.856,-42.772 -8.732,0 -17.02,4.292 -23.68,10.212 h -0.592 l -1.776,-8.14 h -21.46 z m 38.776,-50.172 c -3.996,0 -8.436,-1.184 -12.58,-4.884 v -33.3 c 4.588,-4.884 8.584,-7.104 13.468,-7.104 9.324,0 13.616,6.956 13.616,21.756 0,16.872 -6.512,23.532 -14.504,23.532 z" />
    <path
       id="path868"
       style="font-style:normal;font-variant:normal;font-weight:900;font-stretch:normal;font-size:148px;font-family:'Noto Sans CJK KR';-inkscape-font-specification:'Noto Sans CJK KR, Heavy';font-variant-ligatures:normal;font-variant-caps:normal;font-variant-numeric:normal;font-variant-east-asian:normal;fill:#6666cc;fill-opacity:0.858824"
       d="m 642.53431,240.812 c 11.544,0 19.388,-5.328 26.344,-13.616 h 0.592 l 1.924,11.544 h 21.46 v -84.212 h -26.344 v 55.204 c -4.44,6.216 -8.14,8.584 -14.06,8.584 -6.66,0 -9.768,-3.256 -9.768,-14.948 v -48.84 h -26.344 v 52.096 c 0,21.016 7.844,34.188 26.196,34.188 z" />
    <path
       id="path870"
       style="font-style:normal;font-variant:normal;font-weight:900;font-stretch:normal;font-size:148px;font-family:'Noto Sans CJK KR';-inkscape-font-specification:'Noto Sans CJK KR, Heavy';font-variant-ligatures:normal;font-variant-caps:normal;font-variant-numeric:normal;font-variant-east-asian:normal;fill:#6666cc;fill-opacity:0.858824"
       d="m 739.22225,240.812 c 22.94,0 35.076,-11.988 35.076,-27.528 0,-15.244 -11.692,-21.312 -22.2,-25.308 -8.732,-3.108 -16.428,-5.032 -16.428,-10.064 0,-3.996 2.96,-6.068 8.88,-6.068 5.624,0 11.544,2.96 17.464,7.104 l 11.84,-15.688 c -7.4,-5.476 -16.872,-10.804 -30.192,-10.804 -19.536,0 -32.56,10.804 -32.56,26.788 0,13.912 11.84,20.72 21.904,24.716 8.584,3.404 16.724,5.772 16.724,10.804 0,4.144 -2.96,6.66 -9.916,6.66 -6.66,0 -13.616,-2.96 -21.312,-8.88 l -11.692,16.428 c 8.436,7.104 21.46,11.84 32.412,11.84 z" />
    <path
       id="path872"
       style="font-style:normal;font-variant:normal;font-weight:900;font-stretch:normal;font-size:148px;font-family:'Noto Sans CJK KR';-inkscape-font-specification:'Noto Sans CJK KR, Heavy';font-variant-ligatures:normal;font-variant-caps:normal;font-variant-numeric:normal;font-variant-east-asian:normal;fill:#6666cc;fill-opacity:0.858824"
       d="m 825.39987,238.74 h 23.68001 V 201 c 0,-10.952 -2.072,-27.38 -3.404,-38.184 h 0.59199 l 8.88,26.344 14.948,40.256 h 14.504 l 14.8,-40.256 9.176,-26.344 h 0.592 c -1.332,10.804 -3.404,27.232 -3.404,38.184 v 37.74 h 24.124 V 128.628 h -28.71199 l -16.872,47.508 c -2.07201,6.364 -3.84801,13.32 -6.06801,20.128 h -0.74 c -2.072,-6.808 -3.848,-13.764 -6.068,-20.128 l -17.46399,-47.508 h -28.56401 z" />
    <path
       id="path874"
       style="font-style:normal;font-variant:normal;font-weight:900;font-stretch:normal;font-size:148px;font-family:'Noto Sans CJK KR';-inkscape-font-specification:'Noto Sans CJK KR, Heavy';font-variant-ligatures:normal;font-variant-caps:normal;font-variant-numeric:normal;font-variant-east-asian:normal;fill:#6666cc;fill-opacity:0.858824"
       d="m 991.15294,240.812 c 9.91596,0 21.45996,-3.404 30.19196,-9.62 l -8.732,-15.836 c -6.068,3.552 -11.692,5.328 -17.75996,5.328 -10.656,0 -18.648,-4.736 -21.016,-16.28 h 49.43196 c 0.592,-1.924 1.184,-6.66 1.184,-11.248 0,-23.088 -11.84,-40.7 -36.11196,-40.7 -20.424,0 -39.96,16.872 -39.96,44.252 0,27.824 18.648,44.104 42.772,44.104 z m -17.76,-53.576 c 1.776,-10.064 8.14,-14.652 15.392,-14.652 9.62,0 13.31996,6.216 13.31996,14.652 z" />
    <path
       id="path876"
       style="font-style:normal;font-variant:normal;font-weight:900;font-stretch:normal;font-size:148px;font-family:'Noto Sans CJK KR';-inkscape-font-specification:'Noto Sans CJK KR, Heavy';font-variant-ligatures:normal;font-variant-caps:normal;font-variant-numeric:normal;font-variant-east-asian:normal;fill:#6666cc;fill-opacity:0.858824"
       d="m 1041.281,238.74 h 26.196 V 182.5 c 5.18,-4.884 8.732,-7.548 14.652,-7.548 6.66,0 9.768,3.404 9.768,14.948 v 48.84 h 26.344 v -52.096 c 0,-21.016 -7.844,-34.188 -26.196,-34.188 -11.396,0 -19.98,5.772 -26.936,12.58 h -0.592 l -1.776,-10.508 h -21.46 z" />
    <path
       id="path878"
       style="font-style:normal;font-variant:normal;font-weight:900;font-stretch:normal;font-size:148px;font-family:'Noto Sans CJK KR';-inkscape-font-specification:'Noto Sans CJK KR, Heavy';font-variant-ligatures:normal;font-variant-caps:normal;font-variant-numeric:normal;font-variant-east-asian:normal;fill:#6666cc;fill-opacity:0.858824"
       d="m 1164.0031,240.812 c 11.544,0 19.388,-5.328 26.344,-13.616 h 0.592 l 1.924,11.544 h 21.46 v -84.212 h -26.344 v 55.204 c -4.44,6.216 -8.14,8.584 -14.06,8.584 -6.66,0 -9.768,-3.256 -9.768,-14.948 v -48.84 h -26.344 v 52.096 c 0,21.016 7.844,34.188 26.196,34.188 z" />
  </g>
</svg>
